{
    "asset" : {
        "generator" : "Khronos glTF Blender I/O v1.8.19",
        "version" : "2.0"
    },
    "scene" : 0,
    "scenes" : [
        {
            "name" : "Scene",
            "nodes" : [
                0
            ]
        }
    ],
    "nodes" : [
        {
            "mesh" : 0,
            "name" : "Plane"
        }
    ],
    "materials" : [
        {
            "doubleSided" : true,
            "name" : "Material.001",
            "pbrMetallicRoughness" : {
                "baseColorFactor" : [
                    0.04445577785372734,
                    0.04445577785372734,
                    0.04445577785372734,
                    1
                ],
                "metallicFactor" : 0,
                "roughnessFactor" : 0.5
            }
        }
    ],
    "meshes" : [
        {
            "name" : "Plane",
            "primitives" : [
                {
                    "attributes" : {
                        "POSITION" : 0,
                        "NORMAL" : 1,
                        "TEXCOORD_0" : 2
                    },
                    "indices" : 3,
                    "material" : 0
                }
            ]
        }
    ],
    "accessors" : [
        {
            "bufferView" : 0,
            "componentType" : 5126,
            "count" : 17148,
            "max" : [
                200,
                192.2852020263672,
                200
            ],
            "min" : [
                -200,
                -8.319087982177734,
                -200
            ],
            "type" : "VEC3"
        },
        {
            "bufferView" : 1,
            "componentType" : 5126,
            "count" : 17148,
            "type" : "VEC3"
        },
        {
            "bufferView" : 2,
            "componentType" : 5126,
            "count" : 17148,
            "type" : "VEC2"
        },
        {
            "bufferView" : 3,
            "componentType" : 5123,
            "count" : 26112,
            "type" : "SCALAR"
        }
    ],
    "bufferViews" : [
        {
            "buffer" : 0,
            "byteLength" : 205776,
            "byteOffset" : 0
        },
        {
            "buffer" : 0,
            "byteLength" : 205776,
            "byteOffset" : 205776
        },
        {
            "buffer" : 0,
            "byteLength" : 137184,
            "byteOffset" : 411552
        },
        {
            "buffer" : 0,
            "byteLength" : 52224,
            "byteOffset" : 548736
        }
    ],
    "buffers" : [
        {
            "byteLength" : 600960,
            "uri" : "data:application/octet-stream;base64,"
        }
    ]
}
